<?xml version="1.0" encoding="UTF-8" standalone="no"?>
<!DOCTYPE svg PUBLIC "-//W3C//DTD SVG 1.1//EN" "http://www.w3.org/Graphics/SVG/1.1/DTD/svg11.dtd">
<svg version="1.1" xmlns="http://www.w3.org/2000/svg" xmlns:xlink="http://www.w3.org/1999/xlink" preserveAspectRatio="xMidYMid meet" viewBox="0 0 640 640" width="640" height="640"><defs><path d="M640 320C640 143.39 496.61 0 320 0C143.39 0 0 143.39 0 320C0 496.61 143.39 640 320 640C496.61 640 640 496.61 640 320Z" id="eMiDyo642"></path><radialGradient id="gradienta1SwJporP" gradientUnits="userSpaceOnUse" cx="320" cy="640" dx="320" dy="0" r="640"><stop style="stop-color: #000000;stop-opacity: 1" offset="0%"></stop><stop style="stop-color: #ff0000;stop-opacity: 1" offset="100%"></stop></radialGradient><path d="M601.49 320C601.49 164.64 475.36 38.51 320 38.51C164.64 38.51 38.51 164.64 38.51 320C38.51 475.36 164.64 601.49 320 601.49C475.36 601.49 601.49 475.36 601.49 320Z" id="f1LHIeUFW"></path><radialGradient id="gradientf2ShW18vGO" gradientUnits="userSpaceOnUse" cx="320" cy="601.49" dx="320" dy="38.51" r="562.99"><stop style="stop-color: #ff0000;stop-opacity: 1" offset="0%"></stop><stop style="stop-color: #010000;stop-opacity: 1" offset="100%"></stop></radialGradient><path d="M36.65 365.82C33.98 372.87 23.74 375.54 13.8 371.78C3.87 368.01 -2.03 359.23 0.64 352.17C3.32 345.12 13.55 342.45 23.49 346.21C33.43 349.98 39.32 358.76 36.65 365.82Z" id="c1cPG2BKGH"></path><radialGradient id="gradientc8BkAv0tT" gradientUnits="userSpaceOnUse" cx="23.49" cy="346.21" dx="-12.22" dy="347.3" r="35.72"><stop style="stop-color: #ff0000;stop-opacity: 1" offset="0%"></stop><stop style="stop-color: #010000;stop-opacity: 1" offset="100%"></stop></radialGradient><path d="M565.86 320C565.86 455.69 455.69 565.86 320 565.86C184.31 565.86 74.14 455.69 74.14 320C74.14 184.31 184.31 74.14 320 74.14C455.69 74.14 565.86 184.31 565.86 320Z" id="aBHqn8FOR"></path><radialGradient id="gradientc2dv6udXrT" gradientUnits="userSpaceOnUse" cx="320" cy="74.14" dx="320" dy="565.86" r="491.72"><stop style="stop-color: #ff0000;stop-opacity: 1" offset="0%"></stop><stop style="stop-color: #010000;stop-opacity: 1" offset="100%"></stop></radialGradient><path d="M531.38 320C531.38 436.66 436.66 531.38 320 531.38C203.34 531.38 108.62 436.66 108.62 320C108.62 203.34 203.34 108.62 320 108.62C436.66 108.62 531.38 203.34 531.38 320Z" id="b15dlQc35"></path><radialGradient id="gradientb1impw9lOH" gradientUnits="userSpaceOnUse" cx="320" cy="108.62" dx="320" dy="531.38" r="422.76"><stop style="stop-color: #000000;stop-opacity: 1" offset="0%"></stop><stop style="stop-color: #ff0000;stop-opacity: 1" offset="100%"></stop></radialGradient><path d="M499.77 320C499.77 220.78 419.22 140.23 320 140.23C220.78 140.23 140.23 220.78 140.23 320C140.23 419.22 220.78 499.77 320 499.77C419.22 499.77 499.77 419.22 499.77 320Z" id="aIKHREPm8"></path><radialGradient id="gradientdYefp1QM" gradientUnits="userSpaceOnUse" cx="320" cy="499.77" dx="320" dy="140.23" r="359.54"><stop style="stop-color: #000000;stop-opacity: 1" offset="0%"></stop><stop style="stop-color: #ff0000;stop-opacity: 1" offset="100%"></stop></radialGradient><path d="M478.14 320C478.14 232.72 407.28 161.86 320 161.86C232.72 161.86 161.86 232.72 161.86 320C161.86 407.28 232.72 478.14 320 478.14C407.28 478.14 478.14 407.28 478.14 320Z" id="ahgK88JsV"></path><radialGradient id="gradientb5R10bRwv" gradientUnits="userSpaceOnUse" cx="320" cy="478.14" dx="320" dy="161.86" r="316.28"><stop style="stop-color: #ff0000;stop-opacity: 1" offset="0%"></stop><stop style="stop-color: #010000;stop-opacity: 1" offset="100%"></stop></radialGradient><path d="M438.75 320C438.75 385.54 385.54 438.75 320 438.75C254.46 438.75 201.25 385.54 201.25 320C201.25 254.46 254.46 201.25 320 201.25C385.54 201.25 438.75 254.46 438.75 320Z" id="d3e1ih4K3B"></path><radialGradient id="gradienti2T5K792w" gradientUnits="userSpaceOnUse" cx="320" cy="201.25" dx="320" dy="438.75" r="237.5"><stop style="stop-color: #000000;stop-opacity: 1" offset="0%"></stop><stop style="stop-color: #ff0000;stop-opacity: 1" offset="100%"></stop></radialGradient><path d="M320 438.39L308.95 414.85L320 401.75L331.05 414.85L320 438.39ZM404.12 359.86L394.79 343.22L408.75 337.1L427.47 356.29L404.12 359.86ZM235.88 359.86L212.53 356.29L231.25 337.1L245.21 343.22L235.88 359.86ZM278.94 256.94L258.2 251.79L253.58 223.45L280.79 238.49L278.94 256.94ZM361.06 256.93L359.21 238.49L386.42 223.45L381.8 251.79L361.06 256.93Z" id="aefXeT0At"></path><radialGradient id="gradientarwxiL2Ha" gradientUnits="userSpaceOnUse" cx="320" cy="318.73" dx="320" dy="200.18" r="118.55"><stop style="stop-color: #ffffff;stop-opacity: 1" offset="0%"></stop><stop style="stop-color: #ff0000;stop-opacity: 1" offset="100%"></stop></radialGradient><path d="M284.59 392.26L287.6 409.13L266.26 423.99L268.47 398.08L268.47 398.08L284.59 392.26ZM378.62 378.97L393.77 380.64L400.39 406.62L378.39 398.04L378.39 398.04L378.62 378.97ZM240.05 291.9L249.08 304.18L232.68 313.92L214.24 299.15L214.24 299.15L240.05 291.9ZM400.17 270.48L431.26 271.06L413.08 293.29L392.56 287.38L392.56 287.38L400.17 270.48ZM316.21 204.64L332.26 231.27L321.43 246.32L306.05 231.49L306.05 231.49L316.21 204.64Z" id="ad03JqrYo"></path><radialGradient id="gradientag9YC4YQ2" gradientUnits="userSpaceOnUse" cx="326.09" cy="320.36" dx="385.37" dy="217.7" r="118.55"><stop style="stop-color: #ffffff;stop-opacity: 1" offset="0%"></stop><stop style="stop-color: #ff0000;stop-opacity: 1" offset="100%"></stop></radialGradient><path d="M356.33 373.88L367.45 378.22L367.19 399.2L352.29 388.25L352.29 388.25L356.33 373.88ZM282.54 364.88L281.41 378.25L262.26 385.16L269.18 366.01L269.18 366.01L282.54 364.88ZM394.61 296.22L417.99 302.95L399.75 316.08L385.43 307.45L385.43 307.45L394.61 296.22ZM269.21 279.97L273.54 291.09L259.17 295.13L248.22 280.23L248.22 280.23L269.21 279.97ZM344.47 229.43L351.2 252.81L339.97 262L331.34 247.67L331.34 247.67L344.47 229.43Z" id="dkeH1nOij"></path><radialGradient id="gradiente8iUaR0n7l" gradientUnits="userSpaceOnUse" cx="328.49" cy="318.93" dx="394.11" dy="253.31" r="92.8"><stop style="stop-color: #ffffff;stop-opacity: 1" offset="0%"></stop><stop style="stop-color: #ff0000;stop-opacity: 1" offset="100%"></stop></radialGradient><path d="M303.36 373.91L310.1 389.21L294.76 405.64L291.05 381.59L291.05 381.59L303.36 373.91ZM387.72 351.31L396.68 367.48L375.84 365.07L372.95 353.49L372.95 353.49L387.72 351.31ZM250.94 312.67L264.05 323.05L253.51 333.02L231.17 323.37L231.17 323.37L250.94 312.67ZM396.09 261.62L386.8 279.73L373.39 279.16L376.22 266.04L376.22 266.04L396.09 261.62ZM293.79 234.36L307.18 247.11L301.34 260.85L290.87 255.14L290.87 255.14L293.79 234.36Z" id="e1cyYxsYiN"></path><radialGradient id="gradientb2UjGctF5" gradientUnits="userSpaceOnUse" cx="321.98" cy="318.9" dx="248.56" dy="375.64" r="92.8"><stop style="stop-color: #ffffff;stop-opacity: 1" offset="0%"></stop><stop style="stop-color: #ff0000;stop-opacity: 1" offset="100%"></stop></radialGradient><path d="M331.32 182.34L336.89 182.9L342.39 183.69L347.82 184.69L353.18 185.9L358.45 187.31L363.64 188.93L368.74 190.74L373.74 192.74L378.65 194.93L383.45 197.31L388.15 199.86L392.73 202.59L397.2 205.48L401.55 208.54L405.77 211.77L409.87 215.14L413.83 218.68L417.65 222.35L421.32 226.17L424.86 230.13L428.23 234.23L431.46 238.45L434.52 242.8L437.41 247.27L440.14 251.85L442.69 256.55L445.07 261.35L447.26 266.26L449.26 271.26L451.07 276.36L452.69 281.55L454.1 286.82L455.31 292.18L456.31 297.61L457.1 303.11L457.66 308.68L458.01 314.31L458.12 320L458.01 325.69L457.66 331.32L457.1 336.89L456.31 342.39L455.31 347.82L454.1 353.18L452.69 358.45L451.07 363.64L449.26 368.74L447.26 373.74L445.07 378.65L442.69 383.45L440.14 388.15L437.41 392.73L434.52 397.2L431.46 401.55L428.23 405.77L424.86 409.87L421.32 413.83L417.65 417.65L413.83 421.32L409.87 424.86L405.77 428.23L401.55 431.46L397.2 434.52L392.73 437.41L388.15 440.14L383.45 442.69L378.65 445.07L373.74 447.26L368.74 449.26L363.64 451.07L358.45 452.69L353.18 454.1L347.82 455.31L342.39 456.31L336.89 457.1L331.32 457.66L325.69 458.01L320 458.12L314.31 458.01L308.68 457.66L303.11 457.1L297.61 456.31L292.18 455.31L286.82 454.1L281.55 452.69L276.36 451.07L271.26 449.26L266.26 447.26L261.35 445.07L256.55 442.69L251.85 440.14L247.27 437.41L242.8 434.52L238.45 431.46L234.23 428.23L230.13 424.86L226.17 421.32L222.35 417.65L218.68 413.83L215.14 409.87L211.77 405.77L208.54 401.55L205.48 397.2L202.59 392.73L199.86 388.15L197.31 383.45L194.93 378.65L192.74 373.74L190.74 368.74L188.93 363.64L187.31 358.45L185.9 353.18L184.69 347.82L183.69 342.39L182.9 336.89L182.34 331.32L181.99 325.69L181.88 320L181.99 314.31L182.34 308.68L182.9 303.11L183.69 297.61L184.69 292.18L185.9 286.82L187.31 281.55L188.93 276.36L190.74 271.26L192.74 266.26L194.93 261.35L197.31 256.55L199.86 251.85L202.59 247.27L205.48 242.8L208.54 238.45L211.77 234.23L215.14 230.13L218.68 226.17L222.35 222.35L226.17 218.68L230.13 215.14L234.23 211.77L238.45 208.54L242.8 205.48L247.27 202.59L251.85 199.86L256.55 197.31L261.35 194.93L266.26 192.74L271.26 190.74L276.36 188.93L281.55 187.31L286.82 185.9L292.18 184.69L297.61 183.69L303.11 182.9L308.68 182.34L314.31 181.99L320 181.88L325.69 181.99L331.32 182.34ZM310.27 201.64L305.48 202.13L300.75 202.81L296.08 203.67L291.48 204.7L286.94 205.92L282.48 207.31L278.1 208.87L273.8 210.59L269.58 212.47L265.45 214.51L261.41 216.71L257.47 219.05L253.63 221.54L249.89 224.18L246.26 226.95L242.74 229.85L239.33 232.89L236.05 236.05L232.89 239.33L229.85 242.74L226.95 246.26L224.18 249.89L221.54 253.63L219.05 257.47L216.71 261.41L214.51 265.45L212.47 269.58L210.59 273.8L208.87 278.1L207.31 282.48L205.92 286.94L204.7 291.48L203.67 296.08L202.81 300.75L202.13 305.48L201.64 310.27L201.35 315.11L201.25 320L201.35 324.89L201.64 329.73L202.13 334.52L202.81 339.25L203.67 343.92L204.7 348.52L205.92 353.06L207.31 357.52L208.87 361.9L210.59 366.2L212.47 370.42L214.51 374.55L216.71 378.59L219.05 382.53L221.54 386.37L224.18 390.11L226.95 393.74L229.85 397.26L232.89 400.67L236.05 403.95L239.33 407.11L242.74 410.15L246.26 413.05L249.89 415.82L253.63 418.46L257.47 420.95L261.41 423.29L265.45 425.49L269.58 427.53L273.8 429.41L278.1 431.13L282.48 432.69L286.94 434.08L291.48 435.3L296.08 436.33L300.75 437.19L305.48 437.87L310.27 438.36L315.11 438.65L320 438.75L324.89 438.65L329.73 438.36L334.52 437.87L339.25 437.19L343.92 436.33L348.52 435.3L353.06 434.08L357.52 432.69L361.9 431.13L366.2 429.41L370.42 427.53L374.55 425.49L378.59 423.29L382.53 420.95L386.37 418.46L390.11 415.82L393.74 413.05L397.26 410.15L400.67 407.11L403.95 403.95L407.11 400.67L410.15 397.26L413.05 393.74L415.82 390.11L418.46 386.37L420.95 382.53L423.29 378.59L425.49 374.55L427.53 370.42L429.41 366.2L431.13 361.9L432.69 357.52L434.08 353.06L435.3 348.52L436.33 343.92L437.19 339.25L437.87 334.52L438.36 329.73L438.65 324.89L438.75 320L438.65 315.11L438.36 310.27L437.87 305.48L437.19 300.75L436.33 296.08L435.3 291.48L434.08 286.94L432.69 282.48L431.13 278.1L429.41 273.8L427.53 269.58L425.49 265.45L423.29 261.41L420.95 257.47L418.46 253.63L415.82 249.89L413.05 246.26L410.15 242.74L407.11 239.33L403.95 236.05L400.67 232.89L397.26 229.85L393.74 226.95L390.11 224.18L386.37 221.54L382.53 219.05L378.59 216.71L374.55 214.51L370.42 212.47L366.2 210.59L361.9 208.87L357.52 207.31L353.06 205.92L348.52 204.7L343.92 203.67L339.25 202.81L334.52 202.13L329.73 201.64L324.89 201.35L320 201.25L315.11 201.35L310.27 201.64Z" id="cgm4aWDru"></path><radialGradient id="gradientcU9ksRqDt" gradientUnits="userSpaceOnUse" cx="320" cy="181.88" dx="320" dy="458.12" r="276.24"><stop style="stop-color: #ff0000;stop-opacity: 1" offset="0%"></stop><stop style="stop-color: #010000;stop-opacity: 1" offset="100%"></stop></radialGradient><path d="M360.8 320C360.8 342.52 342.52 360.8 320 360.8C297.48 360.8 279.2 342.52 279.2 320C279.2 297.48 297.48 279.2 320 279.2C342.52 279.2 360.8 297.48 360.8 320Z" id="b7uuYfcmd"></path><path d="M356.33 373.88L367.45 378.22L367.19 399.2L352.29 388.25L352.29 388.25L356.33 373.88ZM282.54 364.88L281.41 378.25L262.26 385.16L269.18 366.01L269.18 366.01L282.54 364.88ZM394.61 296.22L417.99 302.95L399.75 316.08L385.43 307.45L385.43 307.45L394.61 296.22ZM269.21 279.97L273.54 291.09L259.17 295.13L248.22 280.23L248.22 280.23L269.21 279.97ZM344.47 229.43L351.2 252.81L339.97 262L331.34 247.67L331.34 247.67L344.47 229.43Z" id="b3zhad1BJU"></path><radialGradient id="gradienta114zPgocv" gradientUnits="userSpaceOnUse" cx="328.49" cy="318.93" dx="394.11" dy="253.31" r="92.8"><stop style="stop-color: #ffffff;stop-opacity: 1" offset="0%"></stop><stop style="stop-color: #ff0000;stop-opacity: 1" offset="100%"></stop></radialGradient><path d="M341.91 27.94L354.65 29.24L367.24 31.04L379.66 33.32L391.91 36.09L403.98 39.32L415.85 43.02L427.51 47.16L438.96 51.75L450.19 56.76L461.18 62.19L471.93 68.03L482.42 74.27L492.64 80.9L502.59 87.9L512.25 95.27L521.62 103L530.67 111.08L539.42 119.5L547.83 128.24L555.91 137.3L563.64 146.66L571.01 156.33L578.02 166.27L584.64 176.5L590.88 186.99L596.72 197.73L602.15 208.72L607.17 219.95L611.75 231.4L615.9 243.07L619.59 254.94L622.83 267L625.59 279.25L627.88 291.68L629.67 304.26L630.97 317L631.75 329.89L632.02 342.91L631.75 355.92L630.97 368.81L629.67 381.55L628.34 390.9L627.56 380.33L626.27 369.77L624.47 359.33L622.19 349.02L619.42 338.86L616.19 328.86L612.49 319.01L608.35 309.34L603.76 299.84L598.75 290.53L593.32 281.41L587.48 272.5L581.24 263.8L574.61 255.32L567.61 247.07L560.23 239.06L552.5 231.29L544.43 223.78L536.01 216.53L527.27 209.55L518.21 202.85L508.85 196.44L499.18 190.32L489.24 184.51L479.01 179.01L468.52 173.84L457.78 169L446.78 164.49L435.56 160.33L424.11 156.53L412.44 153.1L400.57 150.03L388.51 147.35L376.26 145.05L363.83 143.16L351.25 141.67L338.51 140.59L325.62 139.94L312.6 139.72L299.59 139.94L286.7 140.59L273.96 141.67L261.37 143.16L248.95 145.05L236.7 147.35L224.64 150.03L212.76 153.1L201.1 156.53L189.65 160.33L178.42 164.49L167.43 169L156.69 173.84L146.2 179.01L135.97 184.51L126.02 190.32L116.36 196.44L107 202.85L97.94 209.55L89.2 216.53L80.78 223.78L72.7 231.29L64.97 239.06L57.6 247.07L50.59 255.32L43.97 263.8L37.73 272.5L31.89 281.41L26.46 290.53L21.44 299.84L16.86 309.34L12.72 319.01L9.02 328.86L5.79 338.86L3.02 349.02L0.73 359.33L0.54 360.46L0.26 355.92L0 342.91L0.26 329.89L1.05 317L2.34 304.26L4.14 291.68L6.42 279.25L9.19 267L12.43 254.94L16.12 243.07L20.27 231.4L24.85 219.95L29.86 208.72L35.29 197.73L41.13 186.99L47.37 176.5L54 166.27L61 156.33L68.38 146.66L76.11 137.3L84.19 128.24L92.6 119.5L101.34 111.08L110.4 103L119.77 95.27L129.43 87.9L139.38 80.9L149.6 74.27L160.09 68.03L170.84 62.19L181.83 56.76L193.05 51.75L204.5 47.16L216.17 43.02L228.04 39.32L240.11 36.09L252.36 33.32L264.78 31.04L277.37 29.24L290.11 27.94L302.99 27.16L316.01 26.9L329.03 27.16L341.91 27.94Z" id="c4cTox8vD"></path><radialGradient id="gradienta1l3VqINcL" gradientUnits="userSpaceOnUse" cx="316.01" cy="353.69" dx="337.24" dy="-292.33" r="646.36"><stop style="stop-color: #000000;stop-opacity: 1" offset="0%"></stop><stop style="stop-color: #ff0000;stop-opacity: 1" offset="100%"></stop></radialGradient><path d="M346.23 1.06L359.13 2.37L371.88 4.19L384.46 6.51L396.86 9.31L409.08 12.58L421.1 16.33L432.91 20.52L444.51 25.16L455.88 30.24L467.01 35.74L477.89 41.65L488.51 47.97L498.86 54.68L508.94 61.78L518.72 69.24L528.2 77.07L537.38 85.25L546.23 93.77L554.75 102.62L562.93 111.8L570.76 121.28L578.22 131.06L585.32 141.14L592.03 151.49L598.35 162.11L604.26 172.99L609.76 184.12L614.84 195.49L619.48 207.09L623.67 218.9L627.42 230.92L630.69 243.14L633.49 255.54L635.81 268.12L637.63 280.87L638.94 293.77L639.73 306.82L640 320L639.73 333.18L638.94 346.23L637.63 359.13L636.28 368.6L635.49 357.9L634.18 347.2L632.36 336.63L630.05 326.2L627.24 315.91L623.97 305.77L620.23 295.81L616.03 286.01L611.39 276.39L606.31 266.96L600.81 257.73L594.9 248.71L588.58 239.9L581.87 231.31L574.78 222.95L567.31 214.84L559.48 206.97L551.3 199.37L542.78 192.02L533.93 184.96L524.76 178.17L515.27 171.68L505.49 165.49L495.41 159.61L485.06 154.04L474.44 148.8L463.56 143.9L452.43 139.33L441.06 135.12L429.46 131.27L417.65 127.79L405.63 124.69L393.41 121.97L381.01 119.65L368.43 117.73L355.68 116.22L342.78 115.13L329.73 114.47L316.55 114.25L303.37 114.47L290.32 115.13L277.42 116.22L264.67 117.73L252.09 119.65L239.69 121.97L227.47 124.69L215.45 127.79L203.64 131.27L192.04 135.12L180.68 139.33L169.55 143.9L158.66 148.8L148.04 154.04L137.69 159.61L127.61 165.49L117.83 171.68L108.35 178.17L99.17 184.96L90.32 192.02L81.8 199.37L73.62 206.97L65.79 214.84L58.33 222.95L51.23 231.31L44.52 239.9L38.21 248.71L32.29 257.73L26.79 266.96L21.72 276.39L17.07 286.01L12.88 295.81L9.14 305.77L5.86 315.91L3.06 326.2L0.74 336.63L0.55 337.77L0.27 333.18L0 320L0.27 306.82L1.06 293.77L2.37 280.87L4.19 268.12L6.51 255.54L9.31 243.14L12.58 230.92L16.33 218.9L20.52 207.09L25.16 195.49L30.24 184.12L35.74 172.99L41.65 162.11L47.97 151.49L54.68 141.14L61.78 131.06L69.24 121.28L77.07 111.8L85.25 102.62L93.77 93.77L102.62 85.25L111.8 77.07L121.28 69.24L131.06 61.78L141.14 54.68L151.49 47.97L162.11 41.65L172.99 35.74L184.12 30.24L195.49 25.16L207.09 20.52L218.9 16.33L230.92 12.58L243.14 9.31L255.54 6.51L268.12 4.19L280.87 2.37L293.77 1.06L306.82 0.27L320 0L333.18 0.27L346.23 1.06Z" id="eoddRwzFR"></path><radialGradient id="gradientc1We9nUMV" gradientUnits="userSpaceOnUse" cx="320" cy="330.92" dx="316.01" dy="-5.5" r="336.44"><stop style="stop-color: #000000;stop-opacity: 1" offset="0%"></stop><stop style="stop-color: #ff0000;stop-opacity: 1" offset="100%"></stop></radialGradient><path d="M623.67 361.65L624.21 371.63L624.23 381.7L623.73 391.76L622.72 401.71L621.22 411.53L619.22 421.22L616.75 430.77L613.81 440.18L610.42 449.43L606.57 458.52L602.29 467.45L597.58 476.19L592.46 484.76L586.92 493.13L580.99 501.3L574.68 509.27L567.99 517.02L560.93 524.55L553.52 531.85L545.76 538.91L537.67 545.72L529.25 552.29L520.51 558.59L511.47 564.63L502.14 570.38L492.52 575.86L482.63 581.04L472.47 585.93L462.07 590.51L451.41 594.78L440.53 598.72L429.42 602.33L418.09 605.61L406.57 608.55L394.85 611.13L382.95 613.35L370.88 615.2L358.64 616.68L346.26 617.77L333.73 618.48L321.07 618.79L308.29 618.69L295.52 618.18L282.89 617.27L270.4 615.97L258.08 614.29L245.93 612.24L233.96 609.81L222.18 607.03L210.6 603.9L199.22 600.42L188.07 596.61L177.14 592.47L166.46 588.02L156.02 583.25L145.84 578.18L135.92 572.82L126.29 567.17L116.94 561.25L107.89 555.05L99.15 548.6L90.72 541.89L82.63 534.93L74.86 527.74L67.45 520.32L60.39 512.67L53.7 504.82L47.38 496.76L41.45 488.5L35.92 480.06L30.79 471.43L26.07 462.64L21.78 453.68L17.93 444.56L14.52 435.3L11.57 425.89L9.08 416.36L7.06 406.7L5.53 396.92L4.49 387.04L3.96 377.06L3.94 366.99L4.44 356.93L4.79 353.43L4.96 354.31L7.02 362.33L9.54 370.25L12.54 378.06L15.98 385.76L19.87 393.34L24.2 400.79L28.95 408.1L34.11 415.28L39.68 422.3L45.64 429.18L51.99 435.89L58.71 442.43L65.8 448.8L73.25 454.98L81.04 460.98L89.16 466.78L97.61 472.38L106.38 477.77L115.46 482.95L124.83 487.9L134.48 492.63L144.42 497.11L154.62 501.36L165.07 505.35L175.78 509.09L186.72 512.57L197.89 515.78L209.27 518.7L220.87 521.35L232.66 523.71L244.64 525.77L256.8 527.52L269.12 528.97L281.61 530.09L294.24 530.9L307.01 531.37L319.79 531.5L332.45 531.3L344.98 530.76L357.36 529.91L369.58 528.73L381.65 527.24L393.54 525.45L405.24 523.35L416.76 520.97L428.07 518.29L439.16 515.34L450.03 512.11L460.66 508.62L471.05 504.86L481.19 500.85L491.06 496.59L500.65 492.09L509.96 487.35L518.98 482.38L527.68 477.18L536.08 471.77L544.14 466.15L551.87 460.33L559.25 454.3L566.28 448.09L572.94 441.68L579.22 435.1L585.12 428.35L590.61 421.43L595.7 414.34L600.38 407.11L604.62 399.72L608.43 392.2L611.79 384.53L614.69 376.74L617.12 368.83L619.08 360.8L620.54 352.66L621.5 344.51L622.63 351.77L623.67 361.65Z" id="b4uyuxGfIZ"></path><radialGradient id="gradientde8VesAxf" gradientUnits="userSpaceOnUse" cx="312" cy="462.09" dx="305.33" dy="743.54" r="281.53"><stop style="stop-color: #ff0000;stop-opacity: 1" offset="0%"></stop><stop style="stop-color: #000000;stop-opacity: 1" offset="100%"></stop></radialGradient><path d="M623.38 374.07L623.9 384.38L623.91 394.79L623.41 405.18L622.4 415.46L620.88 425.61L618.88 435.62L616.4 445.49L613.46 455.22L610.05 464.78L606.2 474.18L601.91 483.4L597.2 492.44L592.06 501.3L586.52 509.95L580.59 518.4L574.27 526.64L567.57 534.65L560.51 542.44L553.09 549.98L545.32 557.29L537.22 564.34L528.8 571.12L520.06 577.64L511.02 583.89L501.68 589.85L492.06 595.51L482.16 600.88L472 605.93L461.59 610.67L450.93 615.09L440.04 619.17L428.93 622.92L417.6 626.31L406.07 629.35L394.35 632.03L382.45 634.33L370.38 636.26L358.14 637.79L345.75 638.93L333.22 639.67L320.56 640L307.78 639.91L295.01 639.39L282.38 638.47L269.9 637.14L257.58 635.41L245.43 633.29L233.46 630.8L221.68 627.93L210.1 624.7L198.73 621.12L187.58 617.19L176.66 612.92L165.97 608.33L155.54 603.41L145.36 598.18L135.45 592.65L125.82 586.82L116.48 580.71L107.44 574.31L98.7 567.65L90.28 560.72L82.18 553.54L74.43 546.12L67.02 538.45L59.97 530.56L53.28 522.45L46.97 514.13L41.05 505.6L35.52 496.88L30.4 487.97L25.69 478.89L21.41 469.63L17.56 460.21L14.16 450.64L11.21 440.93L8.73 431.08L6.72 421.1L5.2 411L4.17 400.79L3.64 390.48L3.63 380.07L4.14 369.68L4.49 366.06L4.66 366.97L6.71 375.25L9.23 383.44L12.22 391.51L15.66 399.46L19.54 407.29L23.86 414.98L28.6 422.54L33.76 429.95L39.32 437.2L45.28 444.3L51.63 451.23L58.34 457.98L65.43 464.56L72.87 470.94L80.65 477.13L88.77 483.12L97.22 488.9L105.99 494.46L115.06 499.81L124.42 504.92L134.08 509.79L144.01 514.42L154.2 518.8L164.66 522.92L175.36 526.77L186.3 530.35L197.46 533.66L208.85 536.68L220.44 539.4L232.23 541.83L244.21 543.94L256.37 545.75L268.69 547.23L281.18 548.39L293.81 549.21L306.58 549.68L319.36 549.81L332.02 549.59L344.54 549.03L356.92 548.13L369.15 546.91L381.22 545.36L393.11 543.5L404.82 541.32L416.33 538.85L427.64 536.08L438.74 533.02L449.61 529.68L460.25 526.06L470.64 522.17L480.78 518.01L490.66 513.6L500.25 508.94L509.57 504.04L518.58 498.9L527.3 493.52L535.69 487.93L543.76 482.11L551.5 476.09L558.88 469.85L565.92 463.43L572.58 456.81L578.87 450L584.77 443.02L590.27 435.86L595.37 428.54L600.05 421.05L604.3 413.42L608.11 405.64L611.48 397.72L614.38 389.67L616.82 381.49L618.78 373.19L620.25 364.78L621.22 356.35L622.35 363.86L623.38 374.07Z" id="i1Lrwsjmw"></path><radialGradient id="gradienter4N9ZNwR" gradientUnits="userSpaceOnUse" cx="314.41" cy="360.51" dx="300.8" dy="687.92" r="327.69"><stop style="stop-color: #ff0000;stop-opacity: 1" offset="0%"></stop><stop style="stop-color: #000000;stop-opacity: 1" offset="100%"></stop></radialGradient></defs><g><g><g><use xlink:href="#eMiDyo642" opacity="1" fill="url(#gradienta1SwJporP)"></use></g><g><use xlink:href="#f1LHIeUFW" opacity="1" fill="url(#gradientf2ShW18vGO)"></use></g><g><use xlink:href="#c1cPG2BKGH" opacity="1" fill="url(#gradientc8BkAv0tT)"></use></g><g><use xlink:href="#aBHqn8FOR" opacity="1" fill="url(#gradientc2dv6udXrT)"></use></g><g><use xlink:href="#b15dlQc35" opacity="1" fill="url(#gradientb1impw9lOH)"></use></g><g><use xlink:href="#aIKHREPm8" opacity="1" fill="url(#gradientdYefp1QM)"></use></g><g><use xlink:href="#ahgK88JsV" opacity="1" fill="url(#gradientb5R10bRwv)"></use></g><g><use xlink:href="#d3e1ih4K3B" opacity="1" fill="url(#gradienti2T5K792w)"></use></g><g><g><filter id="shadow12621770" x="198.53" y="209.45" width="242.94" height="247.94" filterUnits="userSpaceOnUse" primitiveUnits="userSpaceOnUse"><feFlood></feFlood><feComposite in2="SourceAlpha" operator="in"></feComposite><feGaussianBlur stdDeviation="0"></feGaussianBlur><feOffset dx="0" dy="-5" result="afterOffset"></feOffset><feFlood flood-color="#360e0e" flood-opacity="0.5"></feFlood><feComposite in2="afterOffset" operator="in"></feComposite><feMorphology operator="dilate" radius="4"></feMorphology><feComposite in2="SourceAlpha" operator="out"></feComposite></filter><path d="M320 438.39L308.95 414.85L320 401.75L331.05 414.85L320 438.39ZM404.12 359.86L394.79 343.22L408.75 337.1L427.47 356.29L404.12 359.86ZM235.88 359.86L212.53 356.29L231.25 337.1L245.21 343.22L235.88 359.86ZM278.94 256.94L258.2 251.79L253.58 223.45L280.79 238.49L278.94 256.94ZM361.06 256.93L359.21 238.49L386.42 223.45L381.8 251.79L361.06 256.93Z" id="a2E9iPjYr6" fill="white" fill-opacity="1" filter="url(#shadow12621770)"></path></g><use xlink:href="#aefXeT0At" opacity="1" fill="url(#gradientarwxiL2Ha)"></use></g><g><g><filter id="shadow1465075" x="200.24" y="190.64" width="245.01" height="252.35" filterUnits="userSpaceOnUse" primitiveUnits="userSpaceOnUse"><feFlood></feFlood><feComposite in2="SourceAlpha" operator="in"></feComposite><feGaussianBlur stdDeviation="0"></feGaussianBlur><feOffset dx="0" dy="-5" result="afterOffset"></feOffset><feFlood flood-color="#360e0e" flood-opacity="0.5"></feFlood><feComposite in2="afterOffset" operator="in"></feComposite><feMorphology operator="dilate" radius="4"></feMorphology><feComposite in2="SourceAlpha" operator="out"></feComposite></filter><path d="M284.59 392.26L287.6 409.13L266.26 423.99L268.47 398.08L268.47 398.08L284.59 392.26ZM378.62 378.97L393.77 380.64L400.39 406.62L378.39 398.04L378.39 398.04L378.62 378.97ZM240.05 291.9L249.08 304.18L232.68 313.92L214.24 299.15L214.24 299.15L240.05 291.9ZM400.17 270.48L431.26 271.06L413.08 293.29L392.56 287.38L392.56 287.38L400.17 270.48ZM316.21 204.64L332.26 231.27L321.43 246.32L306.05 231.49L306.05 231.49L316.21 204.64Z" id="c2lJojp1iN" fill="white" fill-opacity="1" filter="url(#shadow1465075)"></path></g><use xlink:href="#ad03JqrYo" opacity="1" fill="url(#gradientag9YC4YQ2)"></use></g><g><g><filter id="shadow9508158" x="234.22" y="215.43" width="197.77" height="202.77" filterUnits="userSpaceOnUse" primitiveUnits="userSpaceOnUse"><feFlood></feFlood><feComposite in2="SourceAlpha" operator="in"></feComposite><feGaussianBlur stdDeviation="0"></feGaussianBlur><feOffset dx="0" dy="-5" result="afterOffset"></feOffset><feFlood flood-color="#360e0e" flood-opacity="0.5"></feFlood><feComposite in2="afterOffset" operator="in"></feComposite><feMorphology operator="dilate" radius="4"></feMorphology><feComposite in2="SourceAlpha" operator="out"></feComposite></filter><path d="M356.33 373.88L367.45 378.22L367.19 399.2L352.29 388.25L352.29 388.25L356.33 373.88ZM282.54 364.88L281.41 378.25L262.26 385.16L269.18 366.01L269.18 366.01L282.54 364.88ZM394.61 296.22L417.99 302.95L399.75 316.08L385.43 307.45L385.43 307.45L394.61 296.22ZM269.21 279.97L273.54 291.09L259.17 295.13L248.22 280.23L248.22 280.23L269.21 279.97ZM344.47 229.43L351.2 252.81L339.97 262L331.34 247.67L331.34 247.67L344.47 229.43Z" id="c231lHrIFO" fill="white" fill-opacity="1" filter="url(#shadow9508158)"></path></g><use xlink:href="#dkeH1nOij" opacity="1" fill="url(#gradiente8iUaR0n7l)"></use></g><g><g><filter id="shadow6141137" x="217.17" y="220.36" width="193.51" height="204.28" filterUnits="userSpaceOnUse" primitiveUnits="userSpaceOnUse"><feFlood></feFlood><feComposite in2="SourceAlpha" operator="in"></feComposite><feGaussianBlur stdDeviation="0"></feGaussianBlur><feOffset dx="0" dy="-5" result="afterOffset"></feOffset><feFlood flood-color="#360e0e" flood-opacity="0.5"></feFlood><feComposite in2="afterOffset" operator="in"></feComposite><feMorphology operator="dilate" radius="4"></feMorphology><feComposite in2="SourceAlpha" operator="out"></feComposite></filter><path d="M303.36 373.91L310.1 389.21L294.76 405.64L291.05 381.59L291.05 381.59L303.36 373.91ZM387.72 351.31L396.68 367.48L375.84 365.07L372.95 353.49L372.95 353.49L387.72 351.31ZM250.94 312.67L264.05 323.05L253.51 333.02L231.17 323.37L231.17 323.37L250.94 312.67ZM396.09 261.62L386.8 279.73L373.39 279.16L376.22 266.04L376.22 266.04L396.09 261.62ZM293.79 234.36L307.18 247.11L301.34 260.85L290.87 255.14L290.87 255.14L293.79 234.36Z" id="h5TRPsKZJj" fill="white" fill-opacity="1" filter="url(#shadow6141137)"></path></g><use xlink:href="#e1cyYxsYiN" opacity="1" fill="url(#gradientb2UjGctF5)"></use></g><g><use xlink:href="#cgm4aWDru" opacity="1" fill="url(#gradientcU9ksRqDt)"></use></g><g><use xlink:href="#b7uuYfcmd" opacity="1" fill="#000000" fill-opacity="1"></use><g><filter id="shadow15644997" x="263.2" y="263.2" width="113.61" height="121.61" filterUnits="userSpaceOnUse" primitiveUnits="userSpaceOnUse"><feFlood></feFlood><feComposite in2="SourceAlpha" operator="out"></feComposite><feGaussianBlur stdDeviation="0"></feGaussianBlur><feOffset dx="0" dy="-8" result="afterOffset"></feOffset><feFlood flood-color="#5a0000" flood-opacity="0.8"></feFlood><feComposite in2="afterOffset" operator="in"></feComposite><feMorphology operator="dilate" radius="3"></feMorphology><feComposite in2="SourceAlpha" operator="in"></feComposite></filter><path d="M360.8 320C360.8 342.52 342.52 360.8 320 360.8C297.48 360.8 279.2 342.52 279.2 320C279.2 297.48 297.48 279.2 320 279.2C342.52 279.2 360.8 297.48 360.8 320Z" id="a6IgxYg3q" fill="white" fill-opacity="1" filter="url(#shadow15644997)"></path></g></g><g><g><filter id="shadow3115707" x="234.22" y="215.43" width="197.77" height="202.77" filterUnits="userSpaceOnUse" primitiveUnits="userSpaceOnUse"><feFlood></feFlood><feComposite in2="SourceAlpha" operator="in"></feComposite><feGaussianBlur stdDeviation="0"></feGaussianBlur><feOffset dx="0" dy="-5" result="afterOffset"></feOffset><feFlood flood-color="#360e0e" flood-opacity="0.5"></feFlood><feComposite in2="afterOffset" operator="in"></feComposite><feMorphology operator="dilate" radius="4"></feMorphology><feComposite in2="SourceAlpha" operator="out"></feComposite></filter><path d="M356.33 373.88L367.45 378.22L367.19 399.2L352.29 388.25L352.29 388.25L356.33 373.88ZM282.54 364.88L281.41 378.25L262.26 385.16L269.18 366.01L269.18 366.01L282.54 364.88ZM394.61 296.22L417.99 302.95L399.75 316.08L385.43 307.45L385.43 307.45L394.61 296.22ZM269.21 279.97L273.54 291.09L259.17 295.13L248.22 280.23L248.22 280.23L269.21 279.97ZM344.47 229.43L351.2 252.81L339.97 262L331.34 247.67L331.34 247.67L344.47 229.43Z" id="bzUTc9kIM" fill="white" fill-opacity="1" filter="url(#shadow3115707)"></path></g><use xlink:href="#b3zhad1BJU" opacity="1" fill="url(#gradienta114zPgocv)"></use></g><g><use xlink:href="#c4cTox8vD" opacity="1" fill="url(#gradienta1l3VqINcL)"></use></g><g><use xlink:href="#eoddRwzFR" opacity="1" fill="url(#gradientc1We9nUMV)"></use></g><g><use xlink:href="#b4uyuxGfIZ" opacity="1" fill="url(#gradientde8VesAxf)"></use></g><g><use xlink:href="#i1Lrwsjmw" opacity="1" fill="url(#gradienter4N9ZNwR)"></use></g></g></g></svg>